PathFileType	4	(X/Y/Z)	Kaydara																																																																																																																									
DataRate	CameraRate	NumFrames	NumMarkers	Units	OrigDataRate	OrigDataStartFrame	OrigNumFrames																																																																																																																					
30	30	8	41	mm	30	150	154																																																																																																																					
Frame#	Time	PAIB_LFHD			PAIB_RFHD			PAIB_LBHD			PAIB_RBHD			PAIB_LFTShould			PAIB_RFTShould			PAIB_LRRShould			PAIB_RRRShould			PAIB_T10			PAIB_STRN			PAIB_TRUN			PAIB_LSHO			PAIB_LUPA			PAIB_LELB			PAIB_LFRM			PAIB_LWRA			PAIB_LWRB			PAIB_LFIN			PAIB_RSHO			PAIB_RUPA			PAIB_RELB			PAIB_RFRM			PAIB_RWRA			PAIB_RWRB			PAIB_RFIN			PAIB_LFWT			PAIB_RFWT			PAIB_LBWT			PAIB_RBWT			PAIB_LTHI			PAIB_LKNE			PAIB_LSHN			PAIB_LANK			PAIB_LHEE			PAIB_LTOE			PAIB_RTHI			PAIB_RKNE			PAIB_RSHN			PAIB_RANK			PAIB_RHEE			PAIB_RTOE		
		X1	Y1	Z1	X2	Y2	Z2	X3	Y3	Z3	X4	Y4	Z4	X5	Y5	Z5	X6	Y6	Z6	X7	Y7	Z7	X8	Y8	Z8	X9	Y9	Z9	X10	Y10	Z10	X11	Y11	Z11	X12	Y12	Z12	X13	Y13	Z13	X14	Y14	Z14	X15	Y15	Z15	X16	Y16	Z16	X17	Y17	Z17	X18	Y18	Z18	X19	Y19	Z19	X20	Y20	Z20	X21	Y21	Z21	X22	Y22	Z22	X23	Y23	Z23	X24	Y24	Z24	X25	Y25	Z25	X26	Y26	Z26	X27	Y27	Z27	X28	Y28	Z28	X29	Y29	Z29	X30	Y30	Z30	X31	Y31	Z31	X32	Y32	Z32	X33	Y33	Z33	X34	Y34	Z34	X35	Y35	Z35	X36	Y36	Z36	X37	Y37	Z37	X38	Y38	Z38	X39	Y39	Z39	X40	Y40	Z40	X41	Y41	Z41
																																																																																																																												
135	4.957	277.34751	1657.7211	1873.15994	92.93401	1654.74548	1865.17166	290.89888	1624.17465	1749.47296	87.18289	1633.11646	1752.0256	258.18344	1390.79239	1868.79593	136.33012	1385.14725	1874.80865	257.01561	1451.03928	1722.25555	104.25477	1449.06845	1741.78192	173.27297	1290.755	1650.52246	208.43445	1323.97171	1909.69437	209.59148	1222.31514	1932.27783	382.30442	1400.36377	1780.6572	438.48259	1174.11293	1759.75616	449.79801	1092.89902	1715.41885	474.71054	977.92358	1756.36429	427.75543	865.22987	1853.65173	457.73056	845.96092	1781.69098	476.10657	810.12703	1842.38281	4.89531	1387.68829	1830.41061	-65.38529	1214.11354	1809.30344	-90.977	1098.02467	1815.64407	-104.90543	969.01245	1872.44141	-35.10178	883.50914	1982.32452	-107.80169	862.66556	1944.27734	-93.47391	841.22353	2013.87894	301.44066	940.88921	1892.0932	66.78736	944.84978	1906.9072	233.22996	963.98895	1674.87961	88.70055	976.21468	1684.62326	289.04484	676.60736	1763.1604	344.84051	482.55154	1955.70724	306.88774	305.89848	1881.26038	287.65259	188.43941	1711.55426	228.33075	207.73523	1670.34653	273.37687	57.79098	1822.06299	43.36785	680.38757	1725.71411	53.76588	445.58777	1829.65622	124.86545	263.32657	1848.1015	105.3663	63.04866	1761.18301	166.57717	73.669	1708.54584	125.90459	37.38479	1931.36398
136	4.99	279.40655	1656.57486	1912.67181	94.87443	1654.44427	1905.32257	292.197	1623.24051	1788.77167	88.51396	1633.16177	1792.19498	259.33426	1389.814	1907.18597	137.37948	1385.30457	1914.51981	257.0747	1449.79706	1761.13876	104.4645	1449.24713	1781.60065	171.22196	1290.32257	1689.89624	209.60781	1323.55286	1948.56461	210.35078	1221.89491	1971.24451	382.92091	1398.22052	1817.64008	436.49467	1172.06459	1789.44107	446.50719	1092.57767	1741.50284	470.63061	975.62073	1776.24466	423.20732	858.06107	1867.6181	452.27348	842.27516	1794.31656	470.1651	802.45193	1852.65625	5.97477	1389.59991	1871.43692	-66.26607	1216.74171	1857.46643	-93.26033	1101.23657	1869.76837	-104.56171	976.28273	1937.23312	-32.12483	902.93526	2054.34006	-103.9485	876.52184	2018.43292	-89.89361	862.15324	2089.47632	299.22598	941.89819	1933.27118	64.27898	941.97304	1943.72116	235.98864	964.40155	1716.01837	91.89453	975.85365	1722.29782	296.23877	678.5482	1810.08759	339.19174	490.14305	2013.25974	303.88071	300.17817	1969.39911	287.8838	150.01295	1829.26605	227.6688	157.92048	1784.82651	277.78357	49.24788	1966.02203	45.35244	684.62311	1748.0307	54.13548	444.43115	1836.88492	124.58942	261.97056	1852.64755	106.3159	63.41799	1761.5036	167.854	74.98651	1709.13498	125.36043	37.54653	1931.51154
137	5.023	281.97176	1652.93228	1952.19666	97.39204	1651.66168	1945.1947	294.22821	1619.02817	1828.29651	90.50153	1630.009	1832.21008	260.83721	1385.32394	1946.30035	138.69618	1382.03796	1954.50989	257.79781	1445.56534	1800.65109	105.23044	1446.13007	1821.5863	170.26247	1287.04651	1729.56192	210.8646	1319.73831	1987.87048	210.9444	1218.06435	2010.61371	383.84129	1392.48077	1855.18478	435.20035	1166.7318	1819.98566	443.84014	1089.00284	1769.49936	467.21123	970.49423	1798.46954	419.18644	848.82904	1884.05151	447.96383	836.62727	1810.05844	465.38906	793.45657	1866.16318	7.41462	1387.54349	1912.12906	-66.80196	1215.914	1904.86771	-95.33569	1101.44951	1922.90268	-103.52714	981.60919	2000.5249	-27.8871	920.14015	2122.15912	-99.48426	888.94012	2089.51889	-84.80768	881.71608	2161.39938	297.79161	939.14284	1975.19669	62.91805	936.57608	1980.99472	240.10847	963.2328	1757.33566	95.98204	974.66362	1761.10352	298.85334	679.12872	1854.29932	334.07848	490.85876	2059.28467	303.26815	293.90959	2053.66165	289.43396	114.61432	1952.5737	227.18761	110.67641	1910.88974	289.90602	50.15254	2110.05737	46.32923	687.27547	1772.92145	55.11897	442.93907	1849.45953	125.15303	260.2338	1859.34525	107.41864	64.10348	1762.28546	169.45713	76.31041	1710.64041	124.86742	37.35519	1931.48804
138	5.057	285.06628	1647.03812	1991.9426	100.45387	1646.8454	1985.27679	296.81738	1612.48398	1868.04779	92.95908	1624.73251	1872.24396	262.58837	1378.76801	1986.20987	140.32861	1376.61087	1994.93118	259.12472	1439.04037	1840.58929	106.63852	1440.75134	1861.71829	170.52765	1281.3414	1769.55612	212.20461	1313.77975	2028.04138	211.58651	1212.17552	2050.98938	385.31128	1385.15564	1893.6705	434.33891	1159.76631	1853.18451	441.41159	1083.33229	1800.24857	464.5031	963.90434	1823.9447	416.71844	838.89191	1904.57397	445.07595	829.80949	1829.37134	462.20066	783.87733	1883.35938	9.67344	1382.92908	1953.08731	-66.3799	1212.88712	1951.68015	-96.51866	1099.73541	1974.54117	-101.97288	985.35851	2060.84564	-22.64133	934.21814	2185.01556	-94.41257	899.58382	2156.38077	-78.60218	899.2453	2228.62381	298.03747	933.21533	2018.92761	62.66559	929.65431	2019.67316	243.9743	959.58244	1799.80515	99.78321	971.84425	1801.12991	294.90362	672.87102	1894.66553	329.27723	482.75116	2094.60541	305.62365	291.78658	2132.29752	295.42456	92.74851	2077.23587	232.78725	78.3977	2038.21869	302.37072	65.65289	2246.42349	48.20748	688.50487	1800.73044	56.00613	440.80864	1863.55835	125.91724	257.78957	1867.43103	108.84522	65.06485	1763.60565	171.42265	78.00392	1713.0455	123.97404	37.4066	1931.08185
139	5.09	288.82046	1638.92441	2031.8808	104.14028	1639.78729	2025.64392	299.85819	1603.97751	1907.92267	96.21599	1617.47238	1912.72552	264.7998	1371.07712	2026.81992	142.45008	1369.45007	2035.56488	261.31306	1430.86151	1881.09558	108.85165	1433.27133	1902.07169	172.18985	1273.89671	1808.69659	214.17439	1306.43417	2068.78616	213.17272	1204.88937	2092.16751	387.60246	1376.94687	1933.452	434.18213	1151.89613	1889.08661	439.58469	1076.5696	1833.99643	462.83154	956.6478	1852.84546	415.90076	828.1411	1928.72604	443.49163	822.45331	1853.0777	461.00307	773.94547	1904.76959	12.50336	1376.698	1993.85117	-64.83251	1208.06808	1997.19894	-96.52178	1096.30959	2023.96271	-99.57838	986.99013	2117.36008	-16.82687	944.61349	2242.89474	-89.42335	908.12843	2218.59451	-71.90072	913.02094	2290.15106	298.4824	924.3644	2062.23557	63.69535	921.37611	2060.00214	247.32691	952.44644	1843.02094	103.09138	965.93674	1842.33612	291.72749	662.86751	1926.05011	323.79013	464.59023	2125.05005	306.24405	295.67379	2200.03738	299.56379	90.59012	2188.47366	236.92539	67.67864	2152.6001	306.58941	96.1611	2363.14697	51.26104	688.31551	1831.92795	56.94757	437.89577	1881.47659	126.71078	254.30418	1878.07434	110.70704	66.65016	1765.09064	174.18329	80.81614	1715.96359	123.64052	37.1553	1931.24405
140	5.123	293.04344	1630.45319	2072.22855	108.28443	1631.91788	2066.26801	303.66667	1595.11887	1948.26279	100.0317	1609.32663	1953.4227	267.92423	1362.22778	2068.23227	145.49549	1361.18912	2076.69952	264.84623	1422.20139	1922.8949	112.11365	1424.98444	1942.72537	175.24855	1265.02792	1850.68817	216.81747	1297.91412	2110.19531	215.30008	1196.39618	2133.69781	391.01879	1367.91504	1975.14465	435.45277	1142.90916	1927.30988	439.65027	1068.45306	1871.06934	463.01308	948.3181	1885.91064	417.15809	816.72974	1957.65579	443.74466	814.22417	1881.81961	462.21409	763.81943	1931.67648	15.94269	1368.83194	2034.74365	-62.76061	1201.45317	2041.26953	-95.38144	1090.709	2070.85815	-96.14932	985.6427	2169.67712	-11.19609	950.32127	2295.74203	-83.87757	912.16217	2274.42993	-65.25259	920.99709	2345.35767	299.99599	914.76852	2105.80139	65.57619	912.87796	2102.3024	250.97446	943.96202	1885.59372	106.28335	958.05824	1884.27261	291.33745	653.9859	1965.26672	324.03263	453.67325	2162.09106	304.98026	298.4753	2255.09445	297.00565	92.63644	2267.05231	233.61095	67.04811	2233.42728	302.56254	116.40432	2443.29102	55.037	685.68718	1866.62003	58.58937	433.38333	1906.69174	128.49654	250.0034	1892.61917	112.93149	69.55122	1768.49884	176.92717	86.10219	1720.26993	123.52086	36.86073	1931.82495
141	5.157	297.5119	1623.57483	2113.08685	112.77606	1625.13748	2107.1257	308.08849	1587.57782	1989.24789	104.41482	1601.9899	1994.37637	271.84381	1354.12399	2110.64667	149.15359	1353.74924	2119.04892	268.87657	1414.5961	1965.09003	115.86904	1417.83813	1984.38202	178.91941	1257.5811	1893.10806	220.40674	1289.90646	2152.53357	218.49218	1188.33542	2175.63278	394.66854	1359.06097	2017.36115	437.8339	1133.55164	1969.32953	441.88339	1059.36325	1912.83875	465.52513	939.58626	1924.61166	419.97219	805.92209	1992.80045	446.89137	805.774	1916.80222	465.04509	753.52432	1964.66965	20.02067	1360.99472	2076.36444	-59.40272	1194.40384	2083.98956	-92.86052	1084.54918	2115.103	-92.25174	982.02217	2216.66428	-5.79721	951.13777	2343.02841	-78.49651	911.72974	2323.36548	-59.25814	923.0545	2393.71979	302.37326	907.39731	2147.1196	67.76934	904.33243	2143.56064	254.26367	936.49094	1926.4473	109.71977	950.46959	1925.98892	297.51835	647.24747	2013.10379	326.53976	453.69144	2212.23038	302.39031	289.04779	2298.50204	292.91218	83.49558	2300.57632	230.63028	59.16862	2264.41589	291.77086	100.4461	2477.3761	58.31234	680.95787	1905.35385	60.23276	428.80028	1938.28827	129.06473	247.19315	1911.26785	112.51423	75.54884	1772.75604	176.38573	95.67312	1725.63736	123.94522	36.57892	1932.38632
142	5.19	302.09249	1619.66827	2154.32083	117.35126	1621.02753	2148.28827	312.79858	1582.58728	2030.74341	109.10822	1596.78864	2035.65704	277.04693	1348.68973	2153.21564	154.25711	1348.73718	2162.23969	273.55982	1409.48105	2007.02499	120.21567	1413.50662	2027.14752	182.34127	1253.02269	1935.72861	225.52595	1284.76837	2195.41351	223.62206	1183.20541	2218.59543	399.29504	1352.92496	2059.11987	440.73265	1125.97473	2014.83978	445.76401	1051.51413	1958.6084	469.91692	932.73819	1969.2778	424.06948	797.60635	2034.15146	452.82997	799.06006	1958.77914	469.81808	745.76622	2005.92285	24.89328	1355.65613	2119.42459	-54.7115	1189.09012	2125.18829	-88.86686	1079.47128	2155.63766	-87.71472	977.10945	2257.44705	-0.91873	947.09	2383.66577	-73.63286	907.30408	2364.36478	-54.30156	919.42307	2434.47113	306.96918	906.13182	2191.45187	72.3686	898.99544	2187.40143	258.27444	931.95107	1969.4249	113.30926	945.02724	1969.02252	300.46438	644.96109	2062.55646	320.91652	455.2961	2265.58472	296.56702	280.32841	2335.75073	288.33698	77.42551	2319.77371	226.88025	57.6692	2279.46289	288.70005	65.96279	2495.24261	62.3664	675.30632	1948.70026	61.48527	423.67867	1979.49081	131.46791	241.82449	1931.64185	109.81874	87.16876	1780.28046	172.9668	112.41926	1734.38034	124.49602	35.64557	1932.87628
